<svg xmlns="http://www.w3.org/2000/svg" viewBox="0 0 855.79 276.07">
    <defs>
        <style>
            .cls-1 {
                fill: #bed1e6;
            }
            
            .cls-2 {
                fill: #8badd3;
            }
            
            .cls-3 {
                font-size: 164.97px;
                font-family: GillSans, Gill Sans;
            }
            
            .cls-3,
            .cls-5 {
                fill: #95b3d7;
            }
            
            .cls-4 {
                letter-spacing: -0.04em;
            }
            
            .cls-5,
            .cls-9 {
                font-size: 65.83px;
            }
            
            .cls-5,
            .cls-7,
            .cls-9 {
                font-family: GillSans-SemiBold, Gill Sans;
                font-weight: 600;
            }
            
            .cls-6 {
                fill: #fff;
            }
            
            .cls-7 {
                font-size: 161.42px;
            }
            
            .cls-7,
            .cls-9 {
                fill: #f8a438;
            }
            
            .cls-8 {
                fill: #588ac0;
            }
            
            .cls-10 {
                fill: #3a6698;
            }
            
            .cls-11 {
                fill: #264466;
            }
        </style>
    </defs>
    <title>Fichier 1</title>
    <g id="Calque_2" data-name="Calque 2">
        <g id="Layer_1" data-name="Layer 1">
            <polygon class="cls-1" points="0 230.65 38.67 171.53 75.92 230.65 0 230.65" />
            <polygon class="cls-2" points="110.85 229.6 110.83 276.07 37.24 229.47 110.87 183.13 110.85 229.6" />
            <text class="cls-3" transform="translate(212.08 142.43) scale(0.72 1)">
                <tspan class="cls-4">m</tspan>
                <tspan x="121.39" y="0">y</tspan>
            </text>
            <text class="cls-5" transform="translate(318.11 259.57) scale(0.62 1)">Solution</text>
            <path class="cls-6" d="M366.45,25.63v185s64,17,64-91.5C430.49,15.63,366.45,25.63,366.45,25.63Zm22.9,157.5V58s14,5.64,14,59.64C404.85,178.13,389.35,183.13,389.35,183.13Z" />
            <polygon class="cls-6" points="438.95 68.13 461.45 68.13 461.45 211.6 439.95 211.6 438.95 68.13" />
            <path class="cls-6" d="M463.08,36.52a12.57,12.57,0,1,0-12.56,12.63A12.61,12.61,0,0,0,463.08,36.52Z" />
            <path class="cls-6" d="M524.12,201.27l-.67-134.14C495,63.63,474,80.49,471,120.56c-6,58.7,7.82,108.32,31.08,80.78l0,9.78a7.65,7.65,0,0,1-4.28,5.44,20.48,20.48,0,0,1-18-3.49L473,231.63C517.12,251.8,525,219.65,524.12,201.27Zm-22.34-17.8c-1.33,7-9.66,4.33-9.66-12.34V112.47c1.66-15.67,9.66-19.34,9.66-19.34Z" />
            <polygon class="cls-6" points="533.62 67.88 556.12 67.88 556.12 211.34 534.62 211.34 533.62 67.88" />
            <path class="cls-6" d="M557.75,36.26A12.57,12.57,0,1,0,545.18,48.9,12.6,12.6,0,0,0,557.75,36.26Z" />
            <path class="cls-6" d="M605.78,208.13v-17s-1.33,2-5.66,1.34-4.5-7.06-4.5-7.06l.09-98.82h10.5V68.25l-10.09-.37V45.47h-6.34l-27,35.33v5.67h11.34l.33,103c0,23.66,16.66,23.18,20.67,23C605.12,211.13,605.78,208.13,605.78,208.13Z" />
            <text class="cls-7" transform="translate(614.78 211.68) scale(0.66 1)">place</text>
            <polygon class="cls-8" points="99.45 250.13 100.78 151.44 183.45 200.44 99.45 250.13" />
            <text class="cls-9" transform="translate(216.45 259.57) scale(0.62 1)">Data</text>
            <polygon class="cls-10" points="145.73 93.16 214.41 93.19 145.54 201.94 77.06 93.13 145.73 93.16" />
            <polygon class="cls-11" points="94.06 43.98 151 0 163.6 134.27 37.13 87.96 94.06 43.98" />
        </g>
    </g>
</svg>